<svg width="18" height="19" viewBox="0 0 18 19" fill="none" xmlns="http://www.w3.org/2000/svg">
<path d="M13.9126 4.97998C13.6631 4.54893 13.253 4.23431 12.772 4.10498C12.5345 4.03967 12.2863 4.02261 12.0421 4.05481C11.7979 4.08702 11.5626 4.16783 11.3501 4.29248C11.0645 4.45721 10.8274 4.69435 10.6626 4.97998L9.4439 2.87061C9.32088 2.65711 9.15699 2.46995 8.9616 2.31983C8.7662 2.16971 8.54313 2.05958 8.30515 1.99573C8.06716 1.93188 7.81892 1.91556 7.57462 1.94772C7.33032 1.97987 7.09476 2.05986 6.8814 2.18311C6.58445 2.35226 6.34086 2.60126 6.17827 2.90186C5.95561 2.64283 5.66642 2.44955 5.34193 2.34288C5.01743 2.23621 4.66997 2.22021 4.33704 2.29661C4.00412 2.373 3.69839 2.53889 3.45287 2.77636C3.20734 3.01383 3.03135 3.31386 2.9439 3.64404C2.85783 3.95858 2.85783 4.29045 2.9439 4.60498C2.70915 4.63814 2.48339 4.71782 2.27984 4.83936C2.06634 4.96237 1.87918 5.12626 1.72906 5.32166C1.57894 5.51705 1.46881 5.74012 1.40496 5.97811C1.34111 6.2161 1.32479 6.46434 1.35694 6.70863C1.38909 6.95293 1.46908 7.18849 1.59233 7.40186L1.87358 7.88623C1.54442 7.88475 1.22081 7.97105 0.936085 8.13623C0.506475 8.38614 0.193106 8.79578 0.0643161 9.27582C-0.0644737 9.75585 0.00176428 10.2673 0.248585 10.6987L3.13921 15.7065C3.72019 16.7078 4.57402 17.5231 5.601 18.0573C6.62798 18.5915 7.78574 18.8225 8.93909 18.7234C10.0924 18.6243 11.1938 18.1991 12.1146 17.4976C13.0354 16.796 13.7376 15.8469 14.1392 14.7612C15.1332 13.8165 15.7818 12.5658 15.9815 11.2091C16.1811 9.85242 15.9204 8.46794 15.2408 7.27686L13.9126 4.97998ZM6.91265 3.55811C6.9446 3.44001 6.99974 3.32945 7.07485 3.23288C7.14996 3.1363 7.24355 3.05565 7.35015 2.99561C7.45683 2.93398 7.57461 2.89399 7.69676 2.87791C7.81891 2.86184 7.94303 2.86999 8.06202 2.90192C8.18102 2.93384 8.29255 2.98891 8.39025 3.06397C8.48794 3.13903 8.56989 3.23261 8.6314 3.33936L10.4048 6.40186C10.1956 6.44348 9.99487 6.52007 9.81109 6.62842C9.52209 6.78873 9.2839 7.02693 9.12359 7.31592L7.90484 5.19873C7.71739 4.88162 7.44376 4.62424 7.11577 4.45655L7.0064 4.27686C6.88252 4.0587 6.84888 3.80074 6.91265 3.55811V3.55811ZM3.85015 3.88623C3.89785 3.70674 3.99779 3.54547 4.13728 3.42286C4.27678 3.30025 4.44955 3.22184 4.63368 3.19757C4.8178 3.1733 5.00499 3.20426 5.17149 3.28653C5.338 3.3688 5.47631 3.49867 5.5689 3.65967L5.93608 4.29248C5.66203 4.34318 5.40272 4.45433 5.17703 4.61786C4.95134 4.78138 4.76494 4.99317 4.6314 5.2378C4.4721 5.04839 4.27525 4.8941 4.05327 4.78467L3.9439 4.59717C3.82049 4.3817 3.78681 4.12633 3.85015 3.88623V3.88623ZM10.9986 17.1206C9.81404 17.8037 8.40693 17.9891 7.08588 17.6361C5.76484 17.2831 4.63771 16.4207 3.95171 15.2378L1.06108 10.23C0.999528 10.1233 0.959589 10.0055 0.94355 9.88337C0.92751 9.76124 0.935684 9.63714 0.967604 9.51816C0.999525 9.39919 1.05457 9.28767 1.12959 9.18996C1.20461 9.09226 1.29814 9.01029 1.40483 8.94873C1.51153 8.88718 1.62931 8.84724 1.75145 8.8312C1.87358 8.81516 1.99768 8.82333 2.11665 8.85525C2.23563 8.88717 2.34715 8.94221 2.44485 9.01723C2.54256 9.09225 2.62453 9.18578 2.68608 9.29248L4.56108 12.5425C4.60225 12.6138 4.66147 12.673 4.73279 12.7141C4.80411 12.7553 4.885 12.7769 4.96734 12.7769C5.04941 12.7756 5.1299 12.7541 5.20171 12.7144C5.25509 12.6836 5.30187 12.6426 5.3394 12.5938C5.37693 12.5449 5.40447 12.4892 5.42043 12.4297C5.43639 12.3702 5.44047 12.3081 5.43243 12.247C5.4244 12.186 5.4044 12.1271 5.37359 12.0737L2.40483 6.93311C2.28051 6.71762 2.24689 6.46157 2.31135 6.22129C2.37582 5.98101 2.5331 5.77618 2.74859 5.65186C2.96407 5.52754 3.22012 5.49391 3.4604 5.55838C3.70068 5.62284 3.90551 5.78012 4.02983 5.99561L6.99859 11.1362C7.02936 11.1896 7.07035 11.2363 7.1192 11.2739C7.16805 11.3114 7.22381 11.3389 7.2833 11.3548C7.34279 11.3708 7.40484 11.3749 7.4659 11.3669C7.52697 11.3589 7.58586 11.3389 7.63921 11.3081C7.69256 11.2773 7.73932 11.2363 7.77683 11.1875C7.81434 11.1386 7.84187 11.0829 7.85783 11.0234C7.87379 10.9639 7.87787 10.9019 7.86985 10.8408C7.86183 10.7797 7.84186 10.7208 7.81108 10.6675L5.46733 6.60498C5.34393 6.38951 5.31025 6.13414 5.37359 5.89405C5.4046 5.77453 5.45931 5.66246 5.53446 5.56449C5.60962 5.46652 5.70368 5.38465 5.81109 5.32373C6.02702 5.20136 6.28241 5.16882 6.52213 5.23313C6.76185 5.29745 6.96666 5.45346 7.09234 5.66748L10.3736 11.355C10.4148 11.4263 10.474 11.4855 10.5453 11.5266C10.6166 11.5678 10.6975 11.5894 10.7798 11.5894C10.8618 11.5872 10.9421 11.5658 11.0142 11.5269C11.1205 11.4633 11.1978 11.3609 11.2299 11.2414C11.262 11.1218 11.2463 10.9944 11.1861 10.8862L9.93608 8.71436C9.87464 8.60827 9.83479 8.49108 9.81881 8.36953C9.80284 8.24799 9.81107 8.12448 9.84302 8.00612C9.87497 7.88776 9.93001 7.77689 10.005 7.67989C10.0799 7.58289 10.1734 7.50168 10.2798 7.44092C10.3852 7.3781 10.502 7.33694 10.6234 7.31984C10.7449 7.30273 10.8685 7.31004 10.9871 7.34133C11.1057 7.37261 11.2169 7.42725 11.3141 7.50203C11.4113 7.57682 11.4926 7.67025 11.5533 7.77686L12.8814 10.0815C13.2205 10.6672 13.4408 11.314 13.5296 11.9849C13.6185 12.6558 13.5743 13.3377 13.3994 13.9914C13.2245 14.6452 12.9225 15.2581 12.5105 15.795C12.0986 16.332 11.5848 16.7824 10.9986 17.1206V17.1206ZM14.5142 12.7378C14.5316 11.6407 14.2479 10.5599 13.6939 9.6128L12.3658 7.30811C12.1831 6.99191 11.9114 6.7365 11.5845 6.57373L11.4751 6.38623C11.412 6.28034 11.3711 6.16267 11.355 6.04043C11.3388 5.91819 11.3478 5.79394 11.3814 5.67529C11.4124 5.55578 11.4671 5.44371 11.5423 5.34574C11.6174 5.24777 11.7115 5.1659 11.8189 5.10498C12.0348 4.98261 12.2902 4.95007 12.5299 5.01438C12.7697 5.0787 12.9745 5.23471 13.1001 5.44873L14.4283 7.74561C14.86 8.50379 15.0942 9.35836 15.1092 10.2307C15.1242 11.1031 14.9196 11.9652 14.5142 12.7378V12.7378ZM12.0845 1.50342L12.4126 0.292483C12.4557 0.186457 12.536 0.0998309 12.6385 0.0489314C12.741 -0.00196804 12.8585 -0.0136255 12.969 0.0161562C13.0795 0.0459378 13.1752 0.115102 13.2383 0.210612C13.3013 0.306123 13.3272 0.421383 13.3111 0.53467L12.9908 1.74561C12.9646 1.84533 12.9057 1.93339 12.8235 1.9957C12.7414 2.05802 12.6407 2.09099 12.5376 2.08936C12.4979 2.09185 12.4581 2.08654 12.4205 2.07373C12.3004 2.04248 12.1976 1.96491 12.1346 1.858C12.0717 1.7511 12.0536 1.62359 12.0845 1.50342V1.50342ZM14.1236 2.26905L14.8345 1.24561C14.906 1.14304 15.0153 1.07308 15.1384 1.0511C15.2614 1.02912 15.3882 1.05694 15.4908 1.12842C15.5933 1.1999 15.6633 1.3092 15.6853 1.43227C15.7073 1.55535 15.6794 1.68211 15.608 1.78467L14.8892 2.80811C14.8469 2.87075 14.7899 2.92204 14.7232 2.95746C14.6564 2.99289 14.582 3.01135 14.5064 3.01123C14.409 3.009 14.3142 2.97921 14.233 2.9253C14.1328 2.85177 14.0652 2.74201 14.0448 2.61941C14.0244 2.49682 14.0526 2.37109 14.1236 2.26905V2.26905ZM17.3345 3.74561L16.3111 4.45655C16.2316 4.51402 16.1357 4.54418 16.0376 4.54248C15.9385 4.54146 15.8423 4.50905 15.7628 4.44991C15.6833 4.39077 15.6245 4.30795 15.595 4.21334C15.5655 4.11873 15.5667 4.0172 15.5985 3.92334C15.6303 3.82948 15.6911 3.74811 15.772 3.69092L16.7955 2.97217C16.898 2.90069 17.0248 2.87287 17.1479 2.89485C17.2709 2.91683 17.3802 2.98679 17.4517 3.08936C17.5232 3.19192 17.551 3.31868 17.529 3.44175C17.5071 3.56482 17.4371 3.67412 17.3345 3.74561V3.74561Z" fill="black"/>
</svg>
