<svg width="12" height="12" viewBox="0 0 12 12" fill="none" xmlns="http://www.w3.org/2000/svg">
<g clip-path="url(#clip0_539_2354)">
<path d="M11.5 5.995L10.28 4.6L10.45 2.755L8.645 2.345L7.7 0.75L6 1.48L4.3 0.75L3.355 2.345L1.55 2.75L1.72 4.6L0.5 5.995L1.72 7.39L1.55 9.24L3.355 9.65L4.3 11.25L6 10.515L7.7 11.245L8.645 9.65L10.45 9.24L10.28 7.395L11.5 5.995V5.995ZM9.525 6.735L9.245 7.06L9.285 7.485L9.375 8.46L8.425 8.675L8.005 8.77L7.785 9.14L7.29 9.98L6.4 9.595L6 9.425L5.605 9.595L4.715 9.98L4.22 9.145L4 8.775L3.58 8.68L2.63 8.465L2.72 7.485L2.76 7.06L2.48 6.735L1.835 6L2.48 5.26L2.76 4.935L2.715 4.505L2.625 3.535L3.575 3.32L3.995 3.225L4.215 2.855L4.71 2.015L5.6 2.4L6 2.57L6.395 2.4L7.285 2.015L7.78 2.855L8 3.225L8.42 3.32L9.37 3.535L9.28 4.51L9.24 4.935L9.52 5.26L10.165 5.995L9.525 6.735V6.735Z" fill="#0085FF"/>
<path d="M5.04502 6.87457L3.88502 5.70957L3.14502 6.45457L5.04502 8.35957L8.71502 4.67957L7.97502 3.93457L5.04502 6.87457Z" fill="#0085FF"/>
</g>
<defs>
<clipPath id="clip0_539_2354">
<rect width="12" height="12" fill="white"/>
</clipPath>
</defs>
</svg>
